# xmcd CD database file
#
# Track frame offsets:
#	150
#	15145
#	31521
#	54136
#	68994
#	84233
#	104383
#	126842
#	142022
#	159553
#	173824
#	196020
#	209846
#
# Disc length: 2998 seconds
#
# Revision: 0
# Processed by: cddbd v1.5.2PL0 Copyright (c) Steve Scherf et al.
# Submitted via: CDex 1.70beta2
#
DISCID=a10bb40d
DTITLE=Charles Hog Hayes - Raw Blues!
DYEAR=2004
DGENRE=Blues
TTITLE0=Wild About You Baby
TTITLE1=Eyesight To The Blind
TTITLE2=That's Alright
TTITLE3=Crosscut Saw
TTITLE4=Black Cat Bone
TTITLE5=Blues King Mambo
TTITLE6=Rattlesnake
TTITLE7=Mouthful Of Gold
TTITLE8=Highway 49
TTITLE9=Crazy Women
TTITLE10=Same Thing
TTITLE11=Milk Chocolate
TTITLE12=Real Fine Mama
EXTD=YEAR: 2004
EXTT0=
EXTT1=
EXTT2=
EXTT3=
EXTT4=
EXTT5=
EXTT6=
EXTT7=
EXTT8=
EXTT9=
EXTT10=
EXTT11=
EXTT12=
PLAYORDER=
